<svg width="159" height="51" viewBox="0 0 159 51" fill="none" xmlns="http://www.w3.org/2000/svg">
<path d="M9.02395 50.112C7.82928 50.112 6.57061 49.6427 5.24795 48.704C3.92528 47.7653 2.98661 46.6987 2.43195 45.504C1.91995 44.3947 1.38661 40.8747 0.831947 34.944C0.319947 29.0133 0.0639474 24.5973 0.0639474 21.696V18.304C0.0212808 17.3227 -5.24521e-05 16.2347 -5.24521e-05 15.04C-5.24521e-05 12.8213 0.127947 10.624 0.383947 8.44801C0.554614 7.38134 0.767948 6.46401 1.02395 5.69601C1.32261 4.92801 1.72795 4.18134 2.23995 3.45601C3.17861 2.00534 4.58661 1.04534 6.46395 0.576012C7.44528 0.32001 8.53328 0.192009 9.72795 0.192009C10.5386 0.192009 11.3493 0.426676 12.1599 0.896011C13.0133 1.36534 13.4399 1.92001 13.4399 2.56001C13.4399 3.02934 13.0986 3.26401 12.4159 3.26401C12.1599 3.26401 11.6693 3.11468 10.9439 2.81601C10.3039 2.51734 9.72795 2.36801 9.21595 2.36801C8.02128 2.36801 6.93328 2.62401 5.95195 3.13601C5.01328 3.60534 4.26661 4.24534 3.71195 5.05601C3.24261 5.73868 2.83728 6.67734 2.49595 7.87201C2.15461 9.06668 1.94128 10.2613 1.85595 11.456C1.72795 12.5227 1.66395 13.8027 1.66395 15.296L1.72795 18.88C1.77061 19.904 1.79195 21.0133 1.79195 22.208C1.79195 25.152 2.09061 29.4827 2.68795 35.2C3.28528 40.9173 3.86128 44.224 4.41595 45.12C4.92795 45.9307 5.67461 46.5493 6.65595 46.976C7.67995 47.4027 8.74661 47.616 9.85595 47.616C11.8186 47.616 13.3119 46.9973 14.3359 45.76C14.7199 45.248 15.1253 44.992 15.5519 44.992C15.9359 44.992 16.1279 45.2907 16.1279 45.888C16.1279 46.656 15.8933 47.3387 15.4239 47.936C14.9546 48.4907 14.3146 48.9173 13.5039 49.216C12.1386 49.8133 10.6453 50.112 9.02395 50.112ZM34.0529 49.088C33.7116 49.088 33.4129 48.9813 33.1569 48.768C32.9436 48.5547 32.8369 48.2987 32.8369 48V39.616C32.8369 39.104 31.7489 38.6347 29.5729 38.208C27.3969 37.7813 25.6049 37.568 24.1969 37.568C24.1116 37.568 23.9623 37.888 23.7489 38.528C23.5783 39.168 23.4503 39.6373 23.3649 39.936C22.8103 42.1547 22.2556 44.5227 21.7009 47.04L21.3809 48.448C21.2956 48.7893 21.0823 48.96 20.7409 48.96C20.3996 48.96 20.0796 48.8533 19.7809 48.64C19.5249 48.4267 19.3969 48.1707 19.3969 47.872L19.4609 47.744V47.68L20.1649 44.48C20.6769 42.4747 21.1249 40.512 21.5089 38.592C21.9356 36.416 22.2556 35.008 22.4689 34.368C22.8103 32.96 23.4929 29.44 24.5169 23.808L24.9009 21.696C26.0103 15.1253 26.7783 10.9867 27.2049 9.28001C27.4183 8.25601 27.8023 6.74134 28.3569 4.73601C28.5703 3.88268 28.8689 3.02934 29.2529 2.17601C29.6369 1.45068 29.9569 1.08801 30.2129 1.08801C30.8956 1.08801 31.3863 1.30134 31.6849 1.72801C31.8983 2.11201 32.2183 4.22401 32.6449 8.06401C33.1143 11.904 33.5196 15.7867 33.8609 19.712L34.6929 30.336C34.6929 32.1707 34.8209 34.944 35.0769 38.656C35.3329 42.4107 35.4609 45.2053 35.4609 47.04V47.296C35.4609 47.7653 35.3969 48.192 35.2689 48.576C35.0983 48.9173 34.6929 49.088 34.0529 49.088ZM31.4929 36.736C32.3463 36.736 32.7729 36.5227 32.7729 36.096C32.7729 33.4507 32.6236 29.8453 32.3249 25.28C32.0263 20.672 31.7063 16.6187 31.3649 13.12C31.2796 11.6267 31.1089 9.98401 30.8529 8.19201L30.5969 5.69601C30.5969 5.73868 30.5543 5.50401 30.4689 4.99201L30.3409 4.22401C29.9996 5.16268 29.6583 6.46401 29.3169 8.12801C29.0183 9.79201 28.6983 11.7547 28.3569 14.016C27.3329 20.3733 26.4583 25.152 25.7329 28.352L25.1569 30.528C24.5169 32.6613 24.1969 34.2827 24.1969 35.392V35.776C26.0743 36.3733 28.2289 36.672 30.6609 36.672H31.0449C31.1729 36.7147 31.3223 36.736 31.4929 36.736ZM50.3434 49.472C49.9168 49.472 49.5968 49.3227 49.3834 49.024C49.1701 48.6827 49.0634 48.2773 49.0634 47.808V42.112V36.416L48.9354 26.176C48.8074 21.6107 48.7434 18.1973 48.7434 15.936L48.8074 14.08V9.92001C48.8074 5.31201 48.7648 3.00801 48.6794 3.00801H41.4474C41.1061 3.00801 40.7861 2.92268 40.4874 2.75201C40.2314 2.58134 40.1034 2.34668 40.1034 2.04801C40.1034 1.70668 40.1674 1.47201 40.2954 1.34401C40.4234 1.21601 40.7648 1.10934 41.3194 1.02401C41.9168 0.896011 42.7701 0.832012 43.8794 0.832012H50.2794L57.3194 0.768009C57.8314 0.768009 58.1728 0.853343 58.3434 1.02401C58.5568 1.19468 58.6634 1.47201 58.6634 1.85601C58.6634 2.49601 58.2581 2.81601 57.4474 2.81601H54.5674H51.7514L51.1754 2.88001L51.2394 6.59201V11.584V37.568V42.88L51.3034 47.616V47.744C51.3034 48.0853 51.2821 48.384 51.2394 48.64C51.1968 48.8533 51.1114 49.024 50.9834 49.152C50.8554 49.3653 50.6421 49.472 50.3434 49.472ZM87.1009 48.64C87.1009 49.3227 86.1409 49.664 84.2209 49.664C83.5809 49.664 82.8769 49.536 82.1089 49.28C81.3836 49.024 80.7649 48.7253 80.2529 48.384C79.6129 48 79.0156 47.5733 78.4609 47.104C76.9676 48.128 75.7303 48.8107 74.7489 49.152C73.7676 49.536 72.5729 49.728 71.1649 49.728C69.7143 49.728 68.3489 49.216 67.0689 48.192C65.7889 47.168 64.8076 45.888 64.1249 44.352C63.3996 42.816 63.0369 41.344 63.0369 39.936C63.0369 38.016 63.1649 36.416 63.4209 35.136L63.7409 33.152C63.7836 32.7253 63.9756 32.0853 64.3169 31.232C64.4449 30.848 64.5516 30.528 64.6369 30.272C64.7649 29.9733 64.8503 29.7173 64.8929 29.504L65.7249 27.584L66.6209 25.856C66.7063 25.6427 66.8343 25.3653 67.0049 25.024C67.1756 24.6827 67.3889 24.256 67.6449 23.744L68.7329 21.632C68.7329 20.608 68.6689 19.1147 68.5409 17.152C68.3703 15.4027 68.2849 13.9093 68.2849 12.672V7.36001C68.2849 6.03734 68.5836 4.94934 69.1809 4.09601C69.5223 3.58401 69.9276 3.32801 70.3969 3.32801C71.4209 3.32801 72.4663 3.66934 73.5329 4.35201C74.6423 5.03468 75.1969 5.78134 75.1969 6.59201C75.1969 7.31734 75.1756 7.95735 75.1329 8.51201L75.0049 10.432L75.0689 11.2L73.6609 15.36C73.1916 16.6827 72.6369 17.984 71.9969 19.264C71.9543 19.3493 71.7196 19.6907 71.2929 20.288C70.6103 21.2267 70.2689 22.016 70.2689 22.656C70.2689 24.0213 70.6956 26.3893 71.5489 29.76C72.4023 33.1307 73.4263 36.352 74.6209 39.424C75.9436 42.624 77.0529 44.352 77.9489 44.608C79.5703 41.408 80.3809 37.2693 80.3809 32.192C80.3809 31.8507 80.3383 31.5947 80.2529 31.424C80.1249 31.2107 79.9969 31.1467 79.8689 31.232C79.3996 31.232 79.0796 31.0827 78.9089 30.784V30.656L78.8449 30.272L78.9729 29.952C79.7836 29.952 81.0423 29.8667 82.7489 29.696C84.4556 29.5253 85.5009 29.3547 85.8849 29.184C86.1836 29.2267 86.4396 29.3333 86.6529 29.504C86.8663 29.6747 86.9729 29.888 86.9729 30.144C86.9729 30.4427 86.6316 30.6987 85.9489 30.912C85.3089 31.0827 84.6049 31.168 83.8369 31.168H83.0689C82.8556 31.1253 82.5996 31.104 82.3009 31.104H81.8529C81.8529 34.56 81.6609 37.3333 81.2769 39.424C80.8929 41.5147 80.1676 43.6053 79.1009 45.696C80.5516 47.4027 82.2156 48.256 84.0929 48.256C84.5196 48.256 84.9036 48.2347 85.2449 48.192C85.9276 48.1067 86.3329 48.064 86.4609 48.064L87.1009 48.64ZM71.4209 4.92801C71.1649 4.92801 70.8236 5.22668 70.3969 5.82401C69.9703 6.42134 69.7569 6.89068 69.7569 7.23201L69.8209 15.168L69.9489 15.488C69.8636 15.8293 69.8209 16.192 69.8209 16.576C69.8209 16.7467 69.8636 17.216 69.9489 17.984C69.9916 18.368 70.0129 18.8373 70.0129 19.392C70.7383 18.752 71.5489 17.1307 72.4449 14.528C73.3409 11.9253 73.7889 10.0053 73.7889 8.76801C73.7889 6.20801 72.9996 4.92801 71.4209 4.92801ZM71.6769 48.512C72.6583 48.512 73.8103 48.256 75.1329 47.744C76.4556 47.1893 77.1383 46.592 77.1809 45.952C77.0103 45.6107 76.5836 45.12 75.9009 44.48C74.6209 43.2 73.4263 41.1947 72.3169 38.464C71.2503 35.7333 70.4183 32.9173 69.8209 30.016L69.5009 27.456C69.3729 26.2187 69.2023 25.2373 68.9889 24.512C67.5383 26.3893 66.4076 28.5867 65.5969 31.104C64.8289 33.6213 64.4449 36.1813 64.4449 38.784C64.4449 41.1733 64.9996 43.3493 66.1089 45.312C66.6636 46.2933 67.4103 47.0827 68.3489 47.68C69.3303 48.2347 70.4396 48.512 71.6769 48.512ZM96.3949 49.216C95.8829 49.216 95.3709 49.088 94.8589 48.832C94.3469 48.576 94.0909 48.2773 94.0909 47.936C94.0909 47.68 94.2616 47.2533 94.6029 46.656C94.9443 46.1013 95.0936 45.6747 95.0509 45.376L94.8589 39.744L94.4109 22.272L94.2829 14.528C94.2403 9.79201 94.1336 6.82668 93.9629 5.63201C93.8776 5.16268 93.7069 4.62934 93.4509 4.03201C93.1523 3.22134 93.0029 2.64534 93.0029 2.30401C93.0029 1.28001 94.6243 0.768009 97.8669 0.768009H98.1869C100.363 0.768009 102.24 1.51468 103.819 3.00801C105.056 4.16001 106.166 5.97334 107.147 8.44801C107.83 10.4107 108.342 12.608 108.683 15.04C108.854 16.32 109.003 18.2827 109.131 20.928V22.912C109.131 25.5573 108.768 28.4373 108.043 31.552C107.36 34.624 106.379 37.504 105.099 40.192C104.331 41.8987 103.328 43.4347 102.091 44.8C100.896 46.1653 99.7443 47.2533 98.6349 48.064C97.5256 48.832 96.7789 49.216 96.3949 49.216ZM97.3549 45.952C98.9336 45.1413 100.342 43.968 101.579 42.432C102.816 40.8533 103.798 39.1253 104.523 37.248C105.163 35.6693 105.696 33.8773 106.123 31.872C106.55 29.824 106.848 27.9253 107.019 26.176C107.147 24.64 107.211 23.168 107.211 21.76C107.211 9.30134 103.776 3.07201 96.9069 3.07201C96.0109 3.07201 95.5629 3.30668 95.5629 3.77601C95.5629 5.26934 95.6483 7.04001 95.8189 9.08801C95.9896 11.1787 96.0749 12.9493 96.0749 14.4C96.0749 16.7467 96.2456 20.8213 96.5869 26.624C96.8856 31.6587 97.0349 35.712 97.0349 38.784V45.952H97.3549ZM126.146 50.432C120.215 50.432 117.25 40.1707 117.25 19.648V17.088C117.25 13.504 117.463 10.3893 117.89 7.74401C118.146 6.08001 118.487 4.71468 118.914 3.64801C119.383 2.58134 120.002 1.72801 120.77 1.08801C121.495 0.362677 122.434 1.14441e-05 123.586 1.14441e-05C124.61 1.14441e-05 125.549 0.213345 126.402 0.640011C127.255 1.02401 127.959 1.53601 128.514 2.17601C128.983 2.77334 129.41 3.56268 129.794 4.54401C130.178 5.52534 130.477 6.46401 130.69 7.36001L131.202 10.368C132.226 17.664 132.738 24.128 132.738 29.76V29.952C132.738 32.0853 132.695 34.048 132.61 35.84C132.525 37.9733 132.29 40.2133 131.906 42.56C131.735 43.712 131.479 44.7147 131.138 45.568C130.839 46.4213 130.434 47.2747 129.922 48.128C129.026 49.664 127.767 50.432 126.146 50.432ZM126.274 48.64C126.957 48.64 127.575 48.256 128.13 47.488C128.685 46.6773 129.111 45.568 129.41 44.16C130.093 41.1733 130.519 38.2507 130.69 35.392C130.775 33.088 130.818 30.848 130.818 28.672V28.416L130.754 22.016C130.669 19.712 130.413 16.7253 129.986 13.056C129.645 10.4533 128.941 7.78668 127.874 5.05601C127.447 3.98934 126.871 3.15734 126.146 2.56001C125.463 1.96268 124.717 1.66401 123.906 1.66401C123.181 1.66401 122.541 2.00534 121.986 2.68801C121.431 3.37068 120.983 4.33068 120.642 5.56801C119.874 8.42668 119.447 11.072 119.362 13.504C119.234 15.5947 119.17 17.7493 119.17 19.968V23.104C119.17 25.9627 119.447 29.5893 120.002 33.984C120.343 36.7573 120.77 39.168 121.282 41.216C121.794 43.264 122.477 44.992 123.33 46.4C124.183 47.8933 125.165 48.64 126.274 48.64ZM150.22 50.112C147.02 50.112 144.652 47.808 143.116 43.2C141.58 38.592 140.812 31.424 140.812 21.696C140.812 19.6053 140.855 17.7493 140.94 16.128C141.026 14.1653 141.324 12.0533 141.836 9.79201C142.05 8.64001 142.306 7.63734 142.604 6.78401C142.946 5.93068 143.394 5.03468 143.948 4.09601C144.93 2.38934 146.295 1.19468 148.044 0.512009C148.983 0.170677 149.964 1.14441e-05 150.988 1.14441e-05C152.268 1.14441e-05 152.908 0.362677 152.908 1.08801C152.908 1.60001 152.588 1.85601 151.948 1.85601C151.778 1.85601 151.479 1.79201 151.052 1.66401L150.156 1.53601C148.748 1.53601 147.532 2.11201 146.508 3.26401C145.783 4.11734 145.079 5.58934 144.396 7.68001C143.927 9.38668 143.607 11.2853 143.436 13.376C143.308 14.528 143.18 16.4053 143.052 19.008L142.988 23.232V26.752C142.988 30.8907 143.287 34.6667 143.884 38.08C144.311 40.2133 144.802 41.984 145.356 43.392C145.954 44.8 146.743 45.952 147.724 46.848C148.791 47.8293 149.943 48.32 151.18 48.32C153.442 48.32 155.255 47.2533 156.62 45.12C156.62 43.968 156.535 42.4533 156.364 40.576C156.236 39.6373 156.066 38.7627 155.852 37.952C155.596 37.2267 155.298 36.864 154.956 36.864L153.74 36.992L152.396 37.12C151.415 37.12 150.924 36.7573 150.924 36.032C150.924 35.6907 151.522 35.3707 152.716 35.072C153.911 34.7733 154.914 34.624 155.724 34.624C156.407 34.624 156.898 34.88 157.196 35.392C157.538 35.8613 157.708 36.5013 157.708 37.312C157.708 38.2507 157.922 40.1493 158.348 43.008C158.775 45.3973 158.988 47.296 158.988 48.704C158.988 49.3867 158.711 49.728 158.156 49.728C157.132 49.728 156.62 49.2587 156.62 48.32L156.684 48.128V48C154.252 49.408 152.098 50.112 150.22 50.112Z" fill="#7B3131"/>
</svg>
