<?xml version="1.0" encoding="UTF-8"?>
<svg id="_Слой_2" data-name="Слой 2" xmlns="http://www.w3.org/2000/svg" viewBox="0 0 294.26 56">
  <defs>
    <style>
      .cls-1 {
        fill: #667347;
        stroke-width: 0px;
      }
    </style>
  </defs>
  <g id="_Слой_1-2" data-name="Слой 1">
    <g>
      <path class="cls-1" d="m31.34,40.56c-.48,0-.72-.31-.72-.94-.02-.29-.04-.56-.04-.83.02-.29.04-.54.04-.76v-1.04c0-.7-.01-1.15-.04-1.37-.05-.86-.07-1.5-.07-1.91,0-1.08.1-2.68.29-4.79.05-.7.07-1.76.07-3.2.02-.43.04-1.55.04-3.35v-2.59c.05-.31.1-.53.14-.65.05-.14.06-.46.04-.94.07-.02-.5-.06-1.73-.11s-2.1-.08-2.63-.11c.05,0,.07.28.07.83,0,.7-.04,1.66-.11,2.88-.05,1.2-.1,2.06-.14,2.59-.02.86-.04,2.17-.04,3.92v1.66c0,.5.02,1.07.07,1.69.05.62.08,1.07.11,1.33.05.34.1.84.14,1.51.05.5.11,1.36.18,2.56.07,1.18.12,2.05.14,2.63-.05.55-.3.83-.76.83-.24,0-.42-.06-.54-.18-.12-.14-.18-.37-.18-.68l-.07-2.84-.14-5.51c0-1.39.02-3.5.07-6.34v-7.31c0-.29.06-.5.18-.65.12-.17.36-.25.72-.25.67.05,1.18.1,1.51.14l1.04.11c.24.02.59.05,1.04.07.46,0,.84.02,1.15.07.34.05.62.13.86.25.31.12.43.41.36.86-.14,1.1-.25,2.22-.32,3.35-.07,1.22-.11,2.2-.11,2.92v1.58c.02.31.02.71,0,1.19,0,.34-.02.86-.07,1.58-.05.67-.07,1.18-.07,1.51,0,.36-.01.62-.04.79l-.04,2.95c0,1.2.07,2.62.22,4.25.02.19.06.42.11.68.05.24.07.43.07.58,0,.19-.04.38-.11.58-.14.29-.38.43-.72.43Zm9.9.68c-2.81,0-4.21-4.42-4.21-13.25v-1.26c0-6.7.86-10.04,2.59-10.04.12,0,.29.04.5.11.77.26,1.52.43,2.27.5.46.1.91.56,1.37,1.4.5.86.88,2,1.12,3.42.26,1.42.4,2.87.4,4.36l-.07.18c0,.79.01,1.5.04,2.12l.04,2.16c0,1.22-.05,2.33-.14,3.31-.14,1.49-.38,2.77-.72,3.85-.22.65-.47,1.19-.76,1.62-.26.43-.6.79-1.01,1.08-.38.29-.85.43-1.4.43Zm-.14-1.04c.94,0,1.63-.66,2.09-1.98.46-1.34.73-2.71.83-4.1.1-1.44.14-2.59.14-3.46,0-.96-.07-2.38-.22-4.25-.12-2.09-.18-3.5-.18-4.25l-.14-.29.07-.18c0-1.06-.3-1.97-.9-2.74-.58-.77-1.28-1.15-2.12-1.15-1.1,0-1.76.53-1.98,1.58-.05.36-.1.88-.14,1.55,0,1.78-.07,2.99-.22,3.64,0,.36-.04.92-.11,1.69l-.07,1.69c0,.53.01,1,.04,1.4l.04,1.44c0,1.13.1,2.42.29,3.89.14,1.08.31,1.99.5,2.74.19.74.47,1.38.83,1.91.36.58.78.86,1.26.86Zm23.07,2.23c-.48,0-.72-.77-.72-2.3v-2.38c0-3.46-.07-6.16-.22-8.1l-.11-1.33c-.1-.6-.14-1.13-.14-1.58,0-.82.02-1.56.07-2.23l.07-2.23c0-.74-.05-1.31-.14-1.69-.48.34-1.93,5.39-4.36,15.16l-.04.54c-.07.6-.17,1.08-.29,1.44-.07.26-.18.47-.32.61-.12.14-.26.22-.43.22-.38,0-.66-.1-.83-.29-.17-.19-.25-.49-.25-.9,0-.65-.31-2.33-.94-5.04-.6-2.71-1.26-5.32-1.98-7.81-.7-2.5-1.18-3.88-1.44-4.14-.02.84-.12,2.82-.29,5.94-.34,5.52-.5,9.86-.5,13.03l.04,1.44c-.1.31-.35.47-.76.47-.07,0-.19-.07-.36-.22-.17-.12-.25-.22-.25-.29,0-2.16.19-5.95.58-11.38.36-5.04.54-8.82.54-11.34,0-.12-.02-.24-.07-.36-.07-.14-.11-.25-.11-.32,0-.36.31-.54.94-.54.41,0,.65.18.72.54.1.48.14.84.14,1.08l.04.43c.12.62.47,1.58,1.04,2.88.46,1.03.8,1.93,1.04,2.7.14.58.28,1.04.4,1.4.38,1.39.64,2.42.76,3.1l.47.94c.07.36.22.95.43,1.76.22.91.37,1.66.47,2.23.1.58.14,1.13.14,1.66.26-.41,1.01-2.86,2.23-7.34,1.25-4.51,1.98-7.39,2.2-8.64.02-.05.04-.11.04-.18.02-.1.05-.22.07-.36.05-.31.16-.78.32-1.4.19-.48.48-.72.86-.72.17,0,.36.07.58.22s.32.29.32.43c0,10.01.16,15.3.47,15.88v1.87c-.02.55-.04,1.19-.04,1.91,0,1.54.08,2.69.25,3.46.02.02.04.06.04.11.02.05.05.11.07.18.02.1.04.2.04.32,0,.26-.08.53-.25.79-.14.26-.32.4-.54.4Zm-1.19-22.07h-.04l-.07.04.11.04v-.07Zm11.14,20.88c-2.81,0-4.21-4.42-4.21-13.25v-1.26c0-6.7.86-10.04,2.59-10.04.12,0,.29.04.5.11.77.26,1.52.43,2.27.5.46.1.91.56,1.37,1.4.5.86.88,2,1.12,3.42.26,1.42.4,2.87.4,4.36l-.07.18c0,.79.01,1.5.04,2.12l.04,2.16c0,1.22-.05,2.33-.14,3.31-.14,1.49-.38,2.77-.72,3.85-.22.65-.47,1.19-.76,1.62-.26.43-.6.79-1.01,1.08-.38.29-.85.43-1.4.43Zm-.14-1.04c.94,0,1.63-.66,2.09-1.98.46-1.34.73-2.71.83-4.1.1-1.44.14-2.59.14-3.46,0-.96-.07-2.38-.22-4.25-.12-2.09-.18-3.5-.18-4.25l-.14-.29.07-.18c0-1.06-.3-1.97-.9-2.74-.58-.77-1.28-1.15-2.12-1.15-1.1,0-1.76.53-1.98,1.58-.05.36-.1.88-.14,1.55,0,1.78-.07,2.99-.22,3.64,0,.36-.04.92-.11,1.69l-.07,1.69c0,.53.01,1,.04,1.4l.04,1.44c0,1.13.1,2.42.29,3.89.14,1.08.31,1.99.5,2.74.19.74.47,1.38.83,1.91.36.58.78.86,1.26.86Zm9.75.32c-.07.02-.16.04-.25.04-.19,0-.36-.07-.5-.22-.12-.14-.18-.34-.18-.58-.02-.43-.04-1.09-.04-1.98-.05-3.7-.07-6.44-.07-8.24v-1.94c.05-2.26.1-3.95.14-5.08.05-.89.1-2.17.14-3.85.02-.24.04-.62.04-1.15,0-.36.06-.62.18-.79.12-.17.32-.25.61-.25.67,0,1.5.11,2.48.32l1.08.18c.17.02.29.1.36.22.07.12.08.25.04.4-.02.12-.1.24-.22.36-.1.1-.2.17-.32.22h-.11c-.14,0-.36-.05-.65-.14l-2.02-.36-.07,1.01c-.17,2.16-.26,3.56-.29,4.21l-.18,5.22c-.05.91-.1,1.62-.14,2.12,0,.24-.02.62-.07,1.15.02.62.07,1.69.14,3.2.07,1.49.16,2.94.25,4.36.02.24.08.68.18,1.33-.07.02-.17.07-.29.14-.1.05-.18.08-.25.11Zm14.81.36c-.36,0-.59-.05-.68-.14-.1-.07-.17-.29-.22-.65-.22-1.75-.35-2.84-.4-3.28l-.18-1.44c-.53-.12-1.13-.18-1.8-.18l-1.3-.07c-.58-.07-1-.11-1.26-.11-.14,0-.23.06-.25.18,0,.07-.01.11-.04.11l-.07.72c-.02.43-.16,1.3-.4,2.59-.12.65-.26,1.15-.43,1.51-.19.41-.37.61-.54.61-.14,0-.3-.06-.47-.18-.17-.14-.25-.29-.25-.43l.04-.11.04-.11c.43-1.7.79-3.4,1.08-5.08l.43-2.23.43-2.74s.13-.79.4-2.38c.12-.65.34-1.69.65-3.13.34-1.63.54-2.75.61-3.35.02-.07.07-.52.14-1.33.1-.91.18-1.58.25-2.02.07-.62.14-.98.22-1.08h.25c.07.02.16.04.25.04.29,0,.5-.07.65-.22.17,0,.31.06.43.18.14.1.22.22.22.36,0,1.15.08,2.47.25,3.96.1.77.17,1.4.22,1.91.26,3.1.94,8.9,2.02,17.42v.11c0,.24-.1.42-.29.54Zm-1.66-6.48c-.24-3.46-.7-8.56-1.37-15.3l-1.94,9.61c-.55,2.76-.83,4.5-.83,5.22,0,.12.46.23,1.37.32.91.1,1.72.14,2.41.14h.36Zm6.53,6.62c-.43,0-.67-.25-.72-.76v-.47c.02-.12.04-.26.04-.43l-.14-.14c.19-.5.29-1,.29-1.48,0-.55-.04-1.34-.11-2.38l-.07-2.38c0-1.2.04-3,.11-5.4.1-2.14.14-3.95.14-5.44l-.07-2.16c-.05-.65-.07-1.37-.07-2.16,0-.36.08-.61.25-.76.17-.17.43-.25.79-.25.24,0,.43.07.58.22.05.02.4.07,1.04.14.6.07,1.12.18,1.55.32.46.14.68.32.68.54,0,.24-.23.48-.68.72-1.37-.46-2.34-.68-2.92-.68l-.18.22c.02.22.04.73.04,1.55,0,1.03-.02,1.96-.07,2.77-.02.84-.04,1.78-.04,2.81,0,.67.17,1.01.5,1.01l.58-.04c.19-.02.4-.04.61-.04.94,0,1.4.22,1.4.65,0,.26-.06.49-.18.68-.12.17-.3.25-.54.25-.36,0-.64-.1-.83-.29l-1.15-.18h-.18l-.18.18v.11c.05.41.07,1.36.07,2.84,0,.94-.01,1.79-.04,2.56l-.04,2.56c0,.94.04,1.9.11,2.88.02.55.14.92.36,1.12.22.17.61.25,1.19.25l.65-.04c.22-.02.46-.04.72-.04.7,0,1.04.16,1.04.47,0,.43-.53.65-1.58.65h-2.95Zm22.75,1.4c-.48,0-.72-.77-.72-2.3v-2.38c0-3.46-.07-6.16-.22-8.1l-.11-1.33c-.1-.6-.14-1.13-.14-1.58,0-.82.02-1.56.07-2.23l.07-2.23c0-.74-.05-1.31-.14-1.69-.48.34-1.93,5.39-4.36,15.16l-.04.54c-.07.6-.17,1.08-.29,1.44-.07.26-.18.47-.32.61-.12.14-.26.22-.43.22-.38,0-.66-.1-.83-.29-.17-.19-.25-.49-.25-.9,0-.65-.31-2.33-.94-5.04-.6-2.71-1.26-5.32-1.98-7.81-.7-2.5-1.18-3.88-1.44-4.14-.02.84-.12,2.82-.29,5.94-.34,5.52-.5,9.86-.5,13.03l.04,1.44c-.1.31-.35.47-.76.47-.07,0-.19-.07-.36-.22-.17-.12-.25-.22-.25-.29,0-2.16.19-5.95.58-11.38.36-5.04.54-8.82.54-11.34,0-.12-.02-.24-.07-.36-.07-.14-.11-.25-.11-.32,0-.36.31-.54.94-.54.41,0,.65.18.72.54.1.48.14.84.14,1.08l.04.43c.12.62.47,1.58,1.04,2.88.46,1.03.8,1.93,1.04,2.7.14.58.28,1.04.4,1.4.38,1.39.64,2.42.76,3.1l.47.94c.07.36.22.95.43,1.76.22.91.37,1.66.47,2.23s.14,1.13.14,1.66c.26-.41,1.01-2.86,2.23-7.34,1.25-4.51,1.98-7.39,2.2-8.64.02-.05.04-.11.04-.18.02-.1.05-.22.07-.36.05-.31.16-.78.32-1.4.19-.48.48-.72.86-.72.17,0,.36.07.58.22.22.14.32.29.32.43,0,10.01.16,15.3.47,15.88v1.87c-.02.55-.04,1.19-.04,1.91,0,1.54.08,2.69.25,3.46.02.02.04.06.04.11.02.05.05.11.07.18.02.1.04.2.04.32,0,.26-.08.53-.25.79-.14.26-.32.4-.54.4Zm-1.19-22.07h-.04l-.07.04.11.04v-.07Zm19.56,20.38c-.29,0-.47-.02-.54-.07-.05-.02-.07-.11-.07-.25,0-.22-.01-.41-.04-.58-.1-4.32-.14-7.28-.14-8.89l-.11-.14.14-.32c0-.43-.05-.88-.14-1.33l-.54-.14c-.22.07-.46.11-.72.11-.19,0-.59-.06-1.19-.18-.41-.12-.78-.18-1.12-.18l-.4.14c0,.84-.01,1.6-.04,2.27-.02.67-.04,1.43-.04,2.27l.07.14c0,.67.04,1.68.11,3.02.07,1.32.11,2.32.11,2.99,0,.26-.05.49-.14.68-.1.17-.24.25-.43.25-.53,0-.79-.72-.79-2.16,0-1.22.01-2.33.04-3.31l.04-3.28c0-2.18-.04-3.36-.11-3.53.12-.24.18-1.03.18-2.38,0-1.15-.05-2.56-.14-4.21l-.07-1.4-.07-2.81c0-.17.06-.32.18-.47.12-.14.26-.22.43-.22.48,0,.72.7.72,2.09,0,1.63-.01,3.11-.04,4.43-.05,1.32-.07,2.77-.07,4.36,0,.29.91.43,2.74.43h.14c.46,0,.78-.08.97-.25.22-.19.32-.5.32-.94,0-1.27-.08-2.93-.25-4.97-.14-2.21-.22-3.86-.22-4.97,0-.14.06-.26.18-.36.12-.12.26-.18.43-.18l.32.11c.17.02.28.06.32.11,0,1.87.07,4.67.22,8.39.14,3.74.22,6.55.22,8.42s.12,4.18.36,6.91v.22c-.22.12-.49.18-.83.18Zm-1.8-13.18l.07.07h-.07v-.07Zm14.66,13.32c-.36,0-.59-.05-.68-.14-.1-.07-.17-.29-.22-.65-.22-1.75-.35-2.84-.4-3.28l-.18-1.44c-.53-.12-1.13-.18-1.8-.18l-1.3-.07c-.58-.07-1-.11-1.26-.11-.14,0-.23.06-.25.18,0,.07-.01.11-.04.11l-.07.72c-.02.43-.16,1.3-.4,2.59-.12.65-.26,1.15-.43,1.51-.19.41-.37.61-.54.61-.14,0-.3-.06-.47-.18-.17-.14-.25-.29-.25-.43l.04-.11.04-.11c.43-1.7.79-3.4,1.08-5.08l.43-2.23.43-2.74s.13-.79.4-2.38c.12-.65.34-1.69.65-3.13.34-1.63.54-2.75.61-3.35.02-.07.07-.52.14-1.33.1-.91.18-1.58.25-2.02.07-.62.14-.98.22-1.08h.25c.07.02.16.04.25.04.29,0,.5-.07.65-.22.17,0,.31.06.43.18.14.1.22.22.22.36,0,1.15.08,2.47.25,3.96.1.77.17,1.4.22,1.91.26,3.1.94,8.9,2.02,17.42v.11c0,.24-.1.42-.29.54Zm-1.66-6.48c-.24-3.46-.7-8.56-1.37-15.3l-1.94,9.61c-.55,2.76-.83,4.5-.83,5.22,0,.12.46.23,1.37.32s1.72.14,2.41.14h.36Zm7.4,6.16c-.31,0-.53-.06-.65-.18-.12-.14-.18-.37-.18-.68-.22-11.42-.42-18.04-.61-19.84-.07-.46-.16-1.14-.25-2.05-.02-.31.04-.55.18-.72.17-.19.38-.29.65-.29.46,0,.68.31.68.94-.02.84.02,3.08.14,6.73.05,1.34.07,2.6.07,3.78,0,1.61.04,3.62.11,6.05l.25,3.46.29-.36c.67-1.75,1.51-4.03,2.52-6.84s1.61-4.51,1.8-5.11l.47-1.15c.38-.96.7-1.81.94-2.56.14-.43.34-1.13.58-2.09.19-.7.38-1.33.58-1.91.19-.6.36-.96.5-1.08.1-.07.23-.12.4-.14.17-.05.31-.06.43-.04.07.02.14.11.22.25.07.12.11.24.11.36.02.41.02.86,0,1.37v2.84c0,.94.05,2.34.14,4.21.05.6.1,1.52.14,2.77.02.43.04,1.07.04,1.91,0,1.3-.01,2.26-.04,2.88l-.04,2.92c0,1.15.04,2.3.11,3.46v.07c0,.17-.08.32-.25.47-.14.12-.32.19-.54.22-.22,0-.41-.06-.58-.18-.14-.14-.2-.31-.18-.5l.11-2.66.22-5.58v-1.08c-.05-1.85-.08-3.98-.11-6.41-.02-2.45-.02-3.7,0-3.74l-.25-.04-2.48,6.88c-2.16,6.1-3.85,10.64-5.08,13.64l-.43.04Zm4.75-26.68c-.36.29-.73.43-1.12.43-.5,0-1-.24-1.48-.72-.12-.14-.24-.29-.36-.43-.12-.17-.18-.34-.18-.5,0-.12.04-.25.11-.4.34-.1.53-.14.58-.14.14,0,.34.16.58.47.29.38.5.58.65.58.12,0,.35-.13.68-.4.31-.26.55-.52.72-.76.17-.24.24-.55.22-.94.74.17,1.12.48,1.12.94,0,.26-.12.52-.36.76-.41.46-.79.83-1.15,1.12Zm12.25,26.17l-.04-1.33c-.02-.38-.04-.82-.04-1.3,0-.24.01-.44.04-.61l.04-.65c0-.24-.05-.53-.14-.86,0-1.61-.12-4.6-.36-8.96-.24-4.22-.37-7.09-.4-8.6-1.49,0-2.48-.04-2.99-.11-.48-.12-.72-.31-.72-.58.12-.26.35-.4.68-.4.72,0,1.76.05,3.13.14,1.25.12,2.29.18,3.13.18h.76l.76-.04c.43,0,.65.16.65.47,0,.14-.08.26-.25.36-.14.07-.32.11-.54.11-.48,0-.98-.02-1.51-.07l-1.55-.07c-.1,0-.14.04-.14.11-.02.07-.04.3-.04.68,0,2.33.14,5.86.43,10.58.26,4.9.4,8.41.4,10.55,0,.17-.11.32-.32.47-.19.14-.38.22-.58.22l-.4-.29Zm9.86.5c-.31,0-.53-.06-.65-.18-.12-.14-.18-.37-.18-.68-.22-11.42-.42-18.04-.61-19.84-.07-.46-.16-1.14-.25-2.05-.02-.31.04-.55.18-.72.17-.19.38-.29.65-.29.46,0,.68.31.68.94-.02.84.02,3.08.14,6.73.05,1.34.07,2.6.07,3.78,0,1.61.04,3.62.11,6.05l.25,3.46.29-.36c.67-1.75,1.51-4.03,2.52-6.84s1.61-4.51,1.8-5.11l.47-1.15c.38-.96.7-1.81.94-2.56.14-.43.34-1.13.58-2.09.19-.7.38-1.33.58-1.91.19-.6.36-.96.5-1.08.1-.07.23-.12.4-.14.17-.05.31-.06.43-.04.07.02.14.11.22.25.07.12.11.24.11.36.02.41.02.86,0,1.37v2.84c0,.94.05,2.34.14,4.21.05.6.1,1.52.14,2.77.02.43.04,1.07.04,1.91,0,1.3-.01,2.26-.04,2.88l-.04,2.92c0,1.15.04,2.3.11,3.46v.07c0,.17-.08.32-.25.47-.14.12-.32.19-.54.22-.22,0-.41-.06-.58-.18-.14-.14-.2-.31-.18-.5l.11-2.66.22-5.58v-1.08c-.05-1.85-.08-3.98-.11-6.41-.02-2.45-.02-3.7,0-3.74l-.25-.04-2.48,6.88c-2.16,6.1-3.85,10.64-5.08,13.64l-.43.04Zm29.85,3.2c-.36-.07-.5-.3-.43-.68l.18-.94c.12-.53.18-1.01.18-1.44-.82-.07-1.63-.11-2.45-.11-1.03,0-2.15.05-3.35.14-1.18.12-2.33.24-3.46.36-.19.19-.29.44-.29.76,0,.02.04.25.11.68.05.19.07.32.07.4,0,.22-.13.36-.4.43l-.14.04c-.19,0-.37-.06-.54-.18-.17-.12-.26-.26-.29-.43-.1-1.01-.14-1.76-.14-2.27,0-.22.08-.37.25-.47.19-.12.38-.17.58-.14.5.02.86-.1,1.08-.36s.41-.65.58-1.15c.48-1.78.78-3.12.9-4.03.24-2.14.4-3.79.47-4.97.07-1.2.12-2.59.14-4.18,0-.41.01-1.1.04-2.09.02-.98.06-2.02.11-3.1.02-.24.01-.6-.04-1.08-.05-.38-.07-.67-.07-.86-.02-.38.04-.65.18-.79.17-.14.44-.22.83-.22l4.07-.11c.29,0,.52.08.68.25.19.17.28.4.25.68l-.32,7.31c-.14,2.3-.22,4.06-.22,5.26s.05,2.68.14,4.28c0,1.39.04,2.99.11,4.79.84-.19,1.48-.29,1.91-.29.29,0,.52.07.68.22.19.14.29.32.29.54,0,.17-.05.31-.14.43-.36.53-.58,1.1-.65,1.73-.05.65-.08,1.03-.11,1.15-.1.38-.36.53-.79.43Zm-7.52-4.07c2.14-.1,3.77-.18,4.9-.25.1-4.39.18-7.79.25-10.19l.11-3.49c.05-1.58.07-2.75.07-3.49,0-1.13-.01-2.09-.04-2.88,0-.34-.05-.56-.14-.68-.1-.12-.29-.19-.58-.22-.26-.02-.67-.04-1.22-.04h-1.26c-.14,2.02-.3,4.96-.47,8.82-.17,3.74-.29,5.93-.36,6.55-.17,1.46-.34,2.57-.5,3.31-.14.74-.4,1.6-.76,2.56Zm12.67,1.3c-.26-1.51-.4-3.24-.4-5.18,0-.77.04-1.88.11-3.35l.07-3.35c-.17-.34-.25-.61-.25-.83.24-.38.36-1.49.36-3.31,0-4.37-.06-6.7-.18-6.98.22-.6.38-.9.5-.9h1.58c.26,0,.64.13,1.12.4.5.24.92.5,1.26.79.6.55.9,1.97.9,4.25,0,1.22-.04,2.16-.11,2.81-.05.46-.13.82-.25,1.08-.1.26-.25.56-.47.9-.36.55-.97,1.03-1.84,1.44-.36.19-.86.38-1.51.58v4.28c0,.6.06,1.78.18,3.53l.07,1.15.07,2.34c0,.43-.23.65-.68.65l-.54-.29Zm1.15-12.89c.7,0,1.28-.32,1.76-.97.17-.24.32-.56.47-.97.14-.41.24-.8.29-1.19.14-.7.22-1.5.22-2.41v-.97c0-.34-.01-.66-.04-.97-.02-.31-.07-.61-.14-.9-.1-.31-.23-.56-.4-.76-.14-.22-.35-.4-.61-.54-.29-.14-.64-.22-1.04-.22-.29,0-.49.07-.61.22-.12.14-.18.4-.18.76,0,.58.04,1.44.11,2.59l.07,2.59c0,.62-.02,1.19-.07,1.69l-.07,1.69.25.36Zm7.8,12.35c-.24-.1-.36-.3-.36-.61,0-.1.02-.22.07-.36.38-.96.67-1.82.86-2.59.22-.77.38-1.64.5-2.63.05-.29.1-.67.14-1.15.05-.53.1-.9.14-1.12v-.11c0-.17-.02-.3-.07-.4-.24-.58-.42-1.21-.54-1.91-.12-.72-.2-1.2-.25-1.44-.05-.58-.1-.98-.14-1.22-.05-.62-.14-1.46-.29-2.52-.17-1.25-.44-3.1-.83-5.54-.02-.17-.07-.34-.14-.5-.07-.19-.12-.32-.14-.4-.1-.19-.14-.34-.14-.43,0-.17.08-.3.25-.4.1-.07.23-.11.4-.11.31,0,.53.1.65.29.14.22.25.58.32,1.08.1.48.16.94.18,1.37.14,1.01.23,1.76.25,2.27.29,2.45.52,4.27.68,5.47l.32,1.87.25-1.58c.05-.43.12-.84.22-1.22l.14-.83.72-4.07c.19-1.08.34-2.16.43-3.24.05-.26.1-.61.14-1.04.07-.34.23-.5.47-.5l.36.07c.34.14.5.38.5.72,0,.14-.02.31-.07.5-.05.17-.08.29-.11.36l-.43,2.16c-.53,2.42-.86,4.1-1.01,5.04-.19,1.1-.43,2.76-.72,4.97l-.5,3.6c-.1.65-.25,1.58-.47,2.81-.22,1.22-.38,2.04-.5,2.45-.19.7-.47,1.04-.83,1.04-.07,0-.23-.05-.47-.14Zm10.53.07c-.07.02-.16.04-.25.04-.19,0-.36-.07-.5-.22-.12-.14-.18-.34-.18-.58-.02-.43-.04-1.09-.04-1.98-.05-3.7-.07-6.44-.07-8.24v-1.94c.05-2.26.1-3.95.14-5.08.05-.89.1-2.17.14-3.85.02-.24.04-.62.04-1.15,0-.36.06-.62.18-.79.12-.17.32-.25.61-.25.67,0,1.5.11,2.48.32l1.08.18c.17.02.29.1.36.22s.08.25.04.4c-.02.12-.1.24-.22.36-.1.1-.2.17-.32.22h-.11c-.14,0-.36-.05-.65-.14l-2.02-.36-.07,1.01c-.17,2.16-.26,3.56-.29,4.21l-.18,5.22c-.05.91-.1,1.62-.14,2.12,0,.24-.02.62-.07,1.15.02.62.07,1.69.14,3.2.07,1.49.16,2.94.25,4.36.02.24.08.68.18,1.33-.07.02-.17.07-.29.14-.1.05-.18.08-.25.11Zm14.81.36c-.36,0-.59-.05-.68-.14-.1-.07-.17-.29-.22-.65-.22-1.75-.35-2.84-.4-3.28l-.18-1.44c-.53-.12-1.13-.18-1.8-.18l-1.3-.07c-.58-.07-1-.11-1.26-.11-.14,0-.23.06-.25.18,0,.07-.01.11-.04.11l-.07.72c-.02.43-.16,1.3-.4,2.59-.12.65-.26,1.15-.43,1.51-.19.41-.37.61-.54.61-.14,0-.3-.06-.47-.18-.17-.14-.25-.29-.25-.43l.04-.11.04-.11c.43-1.7.79-3.4,1.08-5.08l.43-2.23.43-2.74s.13-.79.4-2.38c.12-.65.34-1.69.65-3.13.34-1.63.54-2.75.61-3.35.02-.07.07-.52.14-1.33.1-.91.18-1.58.25-2.02.07-.62.14-.98.22-1.08h.25c.07.02.16.04.25.04.29,0,.5-.07.65-.22.17,0,.31.06.43.18.14.1.22.22.22.36,0,1.15.08,2.47.25,3.96.1.77.17,1.4.22,1.91.26,3.1.94,8.9,2.02,17.42v.11c0,.24-.1.42-.29.54Zm-1.66-6.48c-.24-3.46-.7-8.56-1.37-15.3l-1.94,9.61c-.55,2.76-.83,4.5-.83,5.22,0,.12.46.23,1.37.32s1.72.14,2.41.14h.36Z"/>
      <g>
        <path class="cls-1" d="m21.4,9.73c-.88.31-.49.39-.6.47,1.43-.59.55-.51.6-.47Z"/>
        <polygon class="cls-1" points="36.05 5.04 35.8 5.18 37.99 4.53 36.05 5.04"/>
        <path class="cls-1" d="m50.37,3.06c-1.4-.26-5.22.56-7.79.81l-.43-.02c-.37.14-.74.29-1.11.45,3.08-.52,7.11-1.17,9.33-1.24Z"/>
        <path class="cls-1" d="m58.13,3.31c-.48-.12,1.66-.2-1.8.04.17.01.23.01.33.02.31-.01.74-.03,1.47-.06Z"/>
        <path class="cls-1" d="m56.65,3.38c-1.52.09,1,.06,0,0h0Z"/>
        <path class="cls-1" d="m63.68,3.01l-2,.19c.42.07,2.21.03,1.55.11,2.06-.13,1.63-.19.46-.3Z"/>
        <path class="cls-1" d="m65.58,2.71l-1.04.07c.18.03.46.04,1.04-.07Z"/>
        <path class="cls-1" d="m62.34,2.96l2.21-.18c-.29-.05-.33-.17-1.01.06.18-.11-.26,0-1.19.11Z"/>
        <path class="cls-1" d="m61.09,2.95c-1.13-.04-2.59-.02-.58-.23-3.84.23-3.26.44.58.23Z"/>
        <path class="cls-1" d="m51.08,2.63l-1.51.02c-.43.08-.86.15-1.29.24.64-.14,2.91-.16,2.8-.27Z"/>
        <path class="cls-1" d="m76.22,3.04c.13-.08-.68-.2-.83-.3l-1.49.1c.76.05,2.22.09,2.32.2Z"/>
        <path class="cls-1" d="m75.39,2.74l2.23-.14c-1.99,0-2.36.05-2.23.14Z"/>
        <polygon class="cls-1" points="65.93 2.31 62.29 2.68 66.64 2.29 65.93 2.31"/>
        <polygon class="cls-1" points="84.74 3.05 83.48 3.22 85.73 2.96 84.74 3.05"/>
        <path class="cls-1" d="m90.39,3.02c-.94.15,1.28.25.29.34,1.54-.03,2.85-.15,4.03-.26-1.25.06-2.59.05-4.32-.07Z"/>
        <path class="cls-1" d="m96.7,2.93c-.63.03-1.28.1-1.98.16.67-.03,1.32-.08,1.98-.16Z"/>
        <path class="cls-1" d="m81.42,2.64c.17.05.51.17,1.76.22l-.88-.21c-.27,0-.57,0-.88,0Z"/>
        <path class="cls-1" d="m82.27,2.64h.03c.95.01,1.61.02,1.9.02-.24,0-.82,0-1.93-.02Z"/>
        <path class="cls-1" d="m81.2,2.64c.08,0,.14,0,.22,0-.08-.02-.14-.03-.22,0Z"/>
        <path class="cls-1" d="m71.77,2.42c1.31-.13,4.04-.27,1.39-.44-.94.15.57.25-1.39.44Z"/>
        <path class="cls-1" d="m80.11,2.37l-2.37-.05c.05.06.47.14-.17.2l2.54-.15Z"/>
        <polygon class="cls-1" points="81.27 2.31 80.11 2.37 80.99 2.39 81.27 2.31"/>
        <path class="cls-1" d="m92.64,2.73c1.02-.09,2.14-.1,3.41-.11-1.36-.04-2.76-.07-4.09-.07-.19.07-.77.19.68.18Z"/>
        <path class="cls-1" d="m87.6,2.67c.07,0,.16,0,.23-.01-.14-.02-.25-.02-.23.01Z"/>
        <path class="cls-1" d="m108.5,2.62c-.07-.01-.13-.03-.2-.04-.02.01-.03.02-.05.04h.25Z"/>
        <path class="cls-1" d="m91.73,2.51c-1.02-.04-1.63.01-2.21.08.76-.02,1.57-.03,2.44-.04.08-.03.1-.05-.23-.04Z"/>
        <path class="cls-1" d="m100.17,2.83c-.53-.04-1.13-.08-1.76-.12.52.07,1.58.17,1.76.12Z"/>
        <path class="cls-1" d="m88.17,2.71c-.05,0-.1,0-.15,0,.33.05.29.02.15,0Z"/>
        <path class="cls-1" d="m88.17,2.71c.52-.03.94-.08,1.35-.13-.62.02-1.2.04-1.69.07.13.02.25.04.34.06Z"/>
        <path class="cls-1" d="m112.27,1.25c-.18.2-2.86.38-5.17.17-2.28.15-.79.8,1.2,1.16.07-.09.07-.17,2.41-.28-.82-.11-5.2-.26-3.22-.43,3.1-.1,2.54.07,4.05.18-1.28-.25,3.95-.36,3.27-.72l-2.72.13c-.05-.06.94-.15.18-.2Z"/>
        <path class="cls-1" d="m103.84,2.56l-.96.02c1.1.03,1.89.11,3.33.27,1.6-.1,1.94-.17,2.05-.24l-4.75-.03.33-.03Z"/>
        <path class="cls-1" d="m98.55,2.58c.75-.22,3.07-.31,1.65-.54-2.83.01-1.98.18-3.67.27,4.56-.05-1.31.12,1.99.24-.9.04-1.7.05-2.46.06.82.03,1.61.07,2.36.1-.04,0-.07,0-.1-.01h-.02s0,0,0,0c-.2-.03-.26-.04-.04-.03.02,0,.07,0,.1,0,.03-.03.12-.06.21-.08,1.32.05.21.06-.21.08-.02.01-.05.02-.06.03,0,0,.01,0,.02,0l4.57-.12c-.97-.03-2.18-.02-4.33,0Z"/>
        <path class="cls-1" d="m75.6,1.5c.14.02.14.03.15.05.3-.03.41-.05-.15-.05Z"/>
        <path class="cls-1" d="m77.48,1.63c-.33.03-.61.12-1.69.1-.94-.06,0-.1-.05-.17-.65.06-2.28.17-.24.26l.32-.03c1.84.07,4.2.33,3.88.36-.54-.19-1.01-.33-2.24-.52Z"/>
        <path class="cls-1" d="m88.15,2.05l3.81-.1-1.94-.19.1.11c-2.16-.05-1.7.09-1.97.18Z"/>
        <polygon class="cls-1" points="108.93 2.73 108.43 2.96 110.63 2.64 108.93 2.73"/>
        <polygon class="cls-1" points="113.88 2.7 113.7 2.9 115 2.78 113.88 2.7"/>
        <path class="cls-1" d="m214.98,54.65l-1.12.07c.53-.02.87-.05,1.12-.07Z"/>
        <path class="cls-1" d="m223.08,54.56l.2-.1c-.37.06-.53.1-.2.1Z"/>
        <path class="cls-1" d="m235.37,2.78c1.62.2,3.43.52,3.24.3l-.49-.23c-1.13.02-2-.02-2.74-.07Z"/>
        <path class="cls-1" d="m285.76,38.1c.12-.1.25-.2.37-.31.19-.36.37-.69.52-1-.27.39-.53.87-.9,1.31Z"/>
        <path class="cls-1" d="m285.63,39.55l-1.6,1.5c.37-.32.88-.81,1.6-1.5Z"/>
        <path class="cls-1" d="m170.76,55.43l-1.3.24c2.04-.03,1.14-.13,1.3-.24Z"/>
        <path class="cls-1" d="m164.54,2.65c1.41.09,2.52.12,3.51.13-1.69-.13-3.06-.31-3.51-.13Z"/>
        <path class="cls-1" d="m218.14,52.31c-.68.05-.98.1-.96.14.7-.05,1.1-.09.96-.14Z"/>
        <path class="cls-1" d="m172.11,2.78c-.25-.02-.49-.03-.74-.05-1.03.04-2.06.06-3.32.05,1.25.09,2.68.15,4.06,0Z"/>
        <path class="cls-1" d="m10.4,48.24c-.11-.06-.24-.14-.33-.19-.05,0,.11.09.33.19Z"/>
        <path class="cls-1" d="m13.65,8.98c-.34.29-.95.69-1.47,1.14.24-.23.72-.53,1.47-1.14Z"/>
        <path class="cls-1" d="m133.78,2.81c-1.05.01-.17.02,0,0h0Z"/>
        <path class="cls-1" d="m128.68,1.95c.22-.02.39-.06.42-.11-.09.05-.23.09-.42.11Z"/>
        <path class="cls-1" d="m182.57,1.44s.06,0,.09,0c-.31-.04-.26-.03-.09,0Z"/>
        <path class="cls-1" d="m132.21,2.71c.39.03.85.05,1.34.07-.22-.01-.63-.03-1.34-.07Z"/>
        <path class="cls-1" d="m132.42,2.81c-.36,0-.65-.02-.92-.02-.13.04-.02.06.92.02Z"/>
        <path class="cls-1" d="m135.25,2.8c-.6,0-1.16,0-1.7-.02.21.01.29.03.24.03.31,0,.74,0,1.46-.01Z"/>
        <path class="cls-1" d="m96.28,55.17c-.07,0-.15-.01-.22-.02-1.06.08-.59.07.22.02Z"/>
        <path class="cls-1" d="m262.74,3.01s-.08,0-.12-.02c.05.01.11.03.15.04l-.03-.03Z"/>
        <path class="cls-1" d="m266.48,3.75c-1.64-.16-2.53-.39-3.71-.72.37.29.73.59,1.09.89.87-.07,1.75-.14,2.63-.17Z"/>
        <path class="cls-1" d="m195.59,54.95l2.65.16c-3.19.36-5.5.28-3.01.52.37-.68,10.28-.2,10.64-.88l1.75.12c-.5,0-.58.04-1.07.04,3.4.28,2.51-.52,6.89-.48,1.52.03,2.59.12,1.55.21l3.39-.21c.99,0,.75.12-.24.12l5.18-.12-.04.02c.74-.12,2.41-.3,3.23-.39,1.32.07-.66.08-.32.16l2.87-.22c1.18.14-1.21.38-3.19.38,2.7.61,2.37-.16,8.21-.03l-2.72.21c1.77.32,3.9.09,7.03.06-.76-.02-6.24-.18-3.11-.54.89,0,2.06-.06,3.73-.36.04.24,1.69.03,3.75-.28l-.1.34c2.22-.43,2.02-.58,3.3-.96,2.47-.46,2.95-.27,3.56-.18,3.83-.54-2.72-.01,1.82-.74,3.22-.32,5.49-.6,9.42-1.13,2.32-.12-.39.24.45.24l2.03-.46c.5-.05.35.04.27.09,1.72-.34.11-.32,2.81-.81.17-.12.6-.21,1.21-.3.31-.04.65-.08,1.04-.13.38-.07.79-.15,1.22-.22.43-.08.89-.17,1.35-.26.46-.12.92-.27,1.37-.42.46-.15.91-.31,1.35-.48.42-.21.82-.43,1.19-.65.81-.27-.29.35,0,.35.53-.28.98-.52,1.37-.73.37-.24.69-.45.97-.63.55-.37.95-.64,1.33-.89.73-.54,1.33-1.1,2.75-2.38l2.58-2.03c-.98.72-.94.51-.44-.12.48-.65,1.34-1.8,2.16-2.84-.66.54-1.22.99-1.58,1.3l1.37-1.59c.45-.53.84-1.12,1.26-1.68.35-.36.18.03-.15.66.16-.24.3-.47.42-.65,1.03-1.1.69-.39.15.58-.37.36-.74.72-1.1,1.07-.56.9-1.08,1.76-.79,1.73.16-.23.5-.64.89-1.08-.15.24-.23.4-.12.33.12-.09.4-.44.75-1.05l.88-.54.04-.27c1.23-1.4,2.44-2.86,3.46-4.48.87-1.86,1.49-3.69,1.94-5.84.2-1.08.36-2.24.38-3.53.01-1.28-.12-2.71-.68-4.19.39.69.47.78.57.64.09-.13.12-.46.28-.46.11.94.36,2.2.35,3.69,0,1.48-.23,3.17-.81,4.76.57-1.67.55-1.28.51-.82.45-1.99.68-4.07.28-6.13.26.12.09-1.38-.6-2.99.03.35-.11.25-.35-.11-.24-.37-.69-.97-1.28-1.54-1.19-1.16-2.93-2.18-3.98-2.7-.02-.11.11-.13.56.06.44.21,1.23.59,2.44,1.53-1.25-1.18-2.25-1.54-3.2-1.93-.96-.39-1.93-.74-3.24-1.62.63.32.95.54,1.24.59-1.5-.69-5.09-2.54-4.18-2.26l.64.31c-2.1-1.06-5.39-2.49-8.31-3.47-2.92-.99-5.43-1.57-5.82-1.46-.03-.07.73-.32,1.03-.32-2.82-.34-5.64-.54-8.44-.61.8-.21-1.82-1.64,2.05-1.05-1.08-.29-2.43-.64-4.79-.89.75.18,1.79.83.75.69-2.75-.86-1.92-.56-5.38-1.33,1.13.21-.2.62-1.99.43.29-.06-.1-.58.57-.57-1.51.04-3.02.1-4.52.19,1.12-.02.23-.47-.76-.68.46.12-3.88-.22-5.07-.18l1.89.2c-5.06-.26-5.01.64-10.01.55.61-.11,1.5-.7-1.04-.79-1.17.27-5.17,1.37-9.59,1.59l-.85-.16-3.39.19c2.11-.43,8.05-1.34,11.29-1.69-1.88-.13-.52-.19-3.35-.18-1-.15,1.54-.23,2.37-.24l-6.57-.1c.29.34-5.03.33-4.78.61l7.14-.34c.29.34-4.13.95-8.79.89-1.18-.13.89-.6.79-.71-.6.12-4.42.22-4.85.14l1.98-.18c-2.59-.13-4.23.44-7.35.12-1.08-.02-3.21-.43-3.4-.24,1.75.38,2.09,1.57.92,1.86-.38-.03-5.65-.37-6.87-.56-1.77-.3,2.66-.72,1.15-.97-.07.09-1.04.2-1.45.24-1.13-.08.47-.28-1.99-.24-.41.34-4.99-.03-1.16.29-2.4.1-2.55-.07-5.37-.06.9.22-2.53.75-4.94.84.14-.09-.4-.2-.66-.25-4.92-.03-7.56-.19-12.15-.19-.42-.08-2.64-.18-1.69-.33-.66.06-1.27.18-2.68.18-2.74-.3,3.16-.04,1.07-.4-.18.2-3.66.27-5.68.39.62.31,4.66.06,6.68-.06,0,.42-3.51.86-8.3,1.05-3.81.1-1.65-.27-2.31-.21-7.16-.08-6.1.73-12.05.43-2.36-.27-.11-.53-.63-.73,3.11-.1,4.77.17,6.87.16l-2.59-.13c.99-.09,3.06-.16,4.19-.08-1.98-.24-12.1-.05-17.62-.28-.98.09-2.68.18-1.87.29l1.75-.04c1.61.22-3.29.3-1.08.4-2.34.15-4.97.39-8.27.27l-.62-.31c.07.09,2.16.18,3.09.09-1.38.14-5.06-.42-6.57-.02l2.31.21c-2.35.15-5.26.48-8.19.38,1.33.3.67-.03,2.75.32-1.8-.44,7.48.02,4.59-.44,2.13.41,3.69.18,6.48.53-.09-.1-.99-.19,1.47-.14.11-.03.37-.07.54-.09.07,0,.1,0,.17,0-.05,0-.09,0-.14-.01.11-.02.12-.02-.05,0-.58-.04-1.06-.1-1.25-.15,1.22-.23,5.12-.22,6.44-.34,1.46.05-.61.12.19.22l1.97-.18c.2.22,3.87.37.44.5h3.09c1.82.14,4.32.19,5.86.1,1.46.05,3.68-.25,2.41-.07l4.85-.14.04.06c4.78.03,9.84-.37,15.31.04,1.61-.06,3.27-.12,5.97-.06l.52.19c2.07-.07,6.2.2,7.09,0,2.23.52,10.03.12,13.66.21l.14-.25c2.5.02,4.9-.06,8.01-.16l-.19-.22c2.68-.18,6.88.16,11.12.14-.29.09-1.36.06-2.12.01,5.06.51,10.68-.37,15.26.01,1.14-.08,1.97-.04,2.77.02-.11,0-.2,0-.28,0,.12,0,.29,0,.47,0,.5.04,1.02.09,1.58.13-.48-.06-.93-.11-1.33-.13.88,0,2.21-.01,3.52-.05l.55.25c.11,0,.19,0,.3,0,1.28.12,1.03-.09.35-.29.66-.02,1.26-.06,1.73-.1,1.03.41,3.43-.02,4.83.47.89-.19,6.53.3,7.27,0,.04.06.42.13-.28.05,1.44.2,2.87.44,4.18.51l.56.4c1.06.03,2.13.07,3.19.14,1.86.55,2.6.85.69.67,4.57.63,3.67.66,7.55,1.37l-.24.14c1.35.37,3.56.83,4.31,1.27,1.41.7,5.06,2.02,9.08,4.01,2.01.99,4.12,2.13,6.11,3.35.99.61,1.92,1.24,2.65,1.94.75.7,1.18,1.47,1.46,2.33,0-.75.33.03.47,1.1.15,1.06.02,2.36.22,2.52-.14.44-.36,1.46-.35.25-.08,1.9-.6,3.32-1.07,4.54-.48,1.23-.99,2.29-1.51,3.58-.35.33.25-.84-.03-.53-.13.29-.51,1.16-.82,1.46-.29.3.23-.55.47-1.12-1.01,1.74-1.58,2.7-1.86,3.31-.28.61-.23.88-.17,1.12-.73.77-1.26,1.37-1.69,1.94-.47.54-.86,1.05-1.29,1.71-.6.45-1.53,1.25.2-.67-.25.26-.76.79-1.39,1.44-.65.62-1.47,1.29-2.23,1.98-1.59,1.27-3.1,2.38-3.1,2.52-.43.16-1.75,1.01-2.06,1.23-1.49.65-2.26,1.08-3.1,1.33-.83.27-1.63.62-3.18,1l.87-.17c-.56.34-1.2.54-2.02.72-.83.13-1.82.28-3.1.49l.07-.05c-2.97.28-3.62.3-4.25.42-.63.09-1.25.16-4.23.26l.34.21c-.5.56-5.29.12-8.71.97l1.26-.09c-.91.26-2.27.32-3.59.38-1.32.06-2.63.03-3.56.14-.41.02.62-.17,1.17-.29-4.86.39-.57.44-4.18.95-.69-.1.81-.51-1.62-.31-.61-.02-2.37.27-4.42.49-2.04.22-4.37.37-6.06.24.75.11,1.49.23-.22.36-2.62.1-7.1-.4-9.47.05-.33-.03-.46-.06-.48-.1-2.01.13-6.52.26-7.73.5-1.87-.81-12.48.56-12.44-.21l-6.18.12.16-.08c-3.95,0-5.34.2-6.73.4-.91-.04-.25-.12-.17-.16-5.77-.08-6.34-.04-11.18.4l-.51-.24c-1.31.16-8.34-.28-14,.07.06-.03.17-.08.62-.12-6.36.37-15.25-.5-17.57.43l-4.2.27c5.43,0-.8.4,1.43.53-2.14.08-5.53-.21-2.9-.29l.41.04c.96-.48-6.75-.1-6.61-.42-10.69.12-21.11-.11-31.12-.23l1.15.38-3.49-.05c-.92-.09-1.23-.3,1.26-.26-1.31-.21-4.18.13-4.25.2-4.87-.23,1.91-.39.42-.43h-2.03s.46.04.46.04c-1.65.12-1.8.28-4.79.21-1.89-.11-.97-.25-1.71-.28,0-.03-.25-.04-1.14-.04l-4.39-.14,1.75.33c-1.95.1-4.13-.12-2.11.26-1.48-.3-5.58-.47-9.53-.63-3.95-.17-7.77-.3-8.67-.45-2.74.05-5.43-.08-8.76-.34.82.12,1.3.47-1.57.24,1.1-.59-5.24-.65-7.52-1.35,1.02.24-1.02.1-2.91-.02-1.89-.13-3.64-.26-2.04.13-2.39-.28-.12-.26-1.92-.59-1.43-.07-2.93-.19-4.48-.35-1.55-.19-3.15-.39-4.8-.6-3.3-.43-6.74-.88-10.12-1.59-.13.06.98.45-.5.25-1.16-.43-2.28-.9-3.35-1.44-.64-.21-.97-.21-1.41-.31-.44-.1-1.02-.29-1.99-1.03.26.23.66.58-.14.17-2.84-1.74-5.01-4.4-6.34-7.51-1.34-3.11-1.94-6.56-1.65-9.99.54-6.88,4.45-13.36,9.82-17.48-1.49,1.1-.58.27.47-.68-.71.58-.12-.18-.33-.15.76-.6,1.6-1.07,2.39-1.61.8-.52,1.68-.92,2.52-1.38.34-.46,1.76-1.08,3.09-1.74,1.39-.51,2.72-1.05,2.97-1.25-.58.18-1.14.45-1.7.67,1.08-.6.22-.5-.93-.31-.58.07-1.2.25-1.67.35-.47.1-.8.13-.77-.02-.59.4-1.33.75-2.1,1.22-.77.46-1.7.84-2.56,1.45-.88.58-1.84,1.15-2.67,1.94-.43.38-.85.77-1.26,1.18-.39.43-.74.9-1.09,1.38-.77.69.49-.75.03-.42-.68,1-1.59,2.08-3.17,4.21l.12-.28c-2.09,3.1-3.1,5.62-3.95,8.27-.81,2.66-1.4,5.64-.89,9.91l.17-.66c.04.92.19,1.45.25,1.88.06.43.11.74.17,1.17.41.98.12-.28-.16-1.55-.17-.63-.2-1.29-.21-1.67,0-.38.04-.47.18-.01-.02.3-.06.74.02,1.25.08.51.2,1.11.33,1.77.24,1.32.81,2.81,1.5,4.22.69,1.41,1.56,2.7,2.36,3.69.79,1,1.49,1.69,1.73,2.07,2.3,1.75-.53-.68,1.79.99l.56.53.72.19c1.61.89,2.43,1.36,2.45,1.51-.41-.18-1.2-.45-1.64-.66,1.06.61,2.66,1.21,4.1,1.58,1.44.39,2.69.6,3.08.71-.86-.21-1.72-.44-2.58-.71,3.69.94,7.81,1.44,11.84,1.87,2.02.22,4.03.45,5.99.62,1.96.16,3.85.3,5.63.39l-.53-.16c5.44.29,4.33.5,10.29.89h-.22c1.2-.02,2.8.03,4.43.16-1.51.03,2.82.45.83.46,5.9.16,2.93,0,6.84-.18l.89.23c1.33-.1,1.45-.16,4.43-.08-2.45.05,1.89.37-.86.46,6.24.7,9.3-.02,12.15.67,2.89-.42-5.4-.47-3.79-.52-1.34-.21,2.38-.3,4.34-.18,2,.09,3.38.75,8.41.87-.5-.01-.54.02-1.03,0,1.88.18,3.69-.1,5.99.15,1.3-.29,3,.07,3.37-.32l-4.61.02c2.62-.06,5.07-.47,9.38-.22-.34.08-1.62.17-2.5.22,1.26.13,2.43-.05,3.73.08-.38.39-5.6.05-8.41.29,1.35.2,5.3-.21,3.89.2,2.03-.53,4.95.12,8.36-.28l-.23.24c.54-.04,1.66-.14,2.65-.13l-1.8.3c2.76-.26,5.31.26,7.96.1-5.54.01-1.24-.28-3.58-.46,6.83-.32,3.93.63,11.57.48-1.03.04-3.89-.12-2.27-.24,1.45.04,3.38.12,4.27.24,5.06-.08-.78-.24,1.38-.4,1.73.28,2.49-.13,4.7-.25l.02.24c5.77.1,1.52-.51,6.72-.38l-2.19.36,2.71-.12-.56.28c2.94-.24,3.86-.19,6.75-.15-.67-.16.37-.44,2.93-.48,1.74.12-.97.24,2.65.16-.82.16-1.71.36-3.29.16-.16.08-.8.16-.97.24,1.88.14,4.72-.02,6.03-.04-.5,0-1.11,0-1.42-.04l5.24-.4c.83.08.17.16-.48.24,1.06-.04,1.8-.16,3.36-.2-.4.2-.3.4-2.51.52l5-.28c.34.08,2.57.2,1.92.28,2.77.08,6.8-.46,10.47-.36.19-.04.57-.08,1.35-.12,3.45,0,6.52.2,10.61-.12l2.33.32c3.21-.12-3.15-.4,2.19-.6,3.78-.16,1.41.28,2.74.36,1.88-.2,5.14-.6,8.62-.36-1.15.08-2.05.04-3.12.08Zm39.59-.86c-.77.1-2.3.33-2.87.21.87-.31,1.55-.21,2.87-.21Zm54.54-20.33c-.26.52-.81,1.24-1.52,1.96.45-.58.95-1.23,1.52-1.96ZM145.28,2.62s.05,0,.08-.01c1.71.09,1.1.06-.08.01Zm-3.55-.11c-.36.03-.33.07-.18.1.25-.06,1.05-.06,1.95-.05-.25-.06-.71-.11-1.77-.05Zm-56.63,50.84l.69.08c-1.56.03-1.12-.02-.69-.08Z"/>
        <path class="cls-1" d="m285.66,39.36c-.18.13-.26.15-.32.16-.18.25-.15.29.32-.16Z"/>
        <path class="cls-1" d="m171,55.38h-.12c-.07.01-.1.03-.12.04l.24-.04Z"/>
        <path class="cls-1" d="m196.73.49c.73.04,1.14.08,1.41.13.04-.06-.29-.11-1.41-.13Z"/>
        <path class="cls-1" d="m122.92,2.91l2.27-.06c-1.1.01-1.49-.04-2.05-.08.05.06.48.14-.23.14Z"/>
        <path class="cls-1" d="m103.19,1.41c-.33.03-.7,0-1.03.03l.09.11c1.42,0,2.41-.1.94-.14Z"/>
        <path class="cls-1" d="m120.82,2.11c-.18-.2-1.61-.13-3.2-.1.1,0,.19,0,.28,0-.47.28,1.23.19,2.92.1Z"/>
        <path class="cls-1" d="m117.25,2.02c-.49,0-.99.01-1.47,0-.19.11.6.02,1.47,0Z"/>
        <path class="cls-1" d="m137.23,2.64c-.75-.05-.47.26-.9.18-.84.26,5.04-.31.9-.18Z"/>
        <polygon class="cls-1" points="119.53 1.44 120.1 1.69 120.99 1.49 119.53 1.44"/>
        <path class="cls-1" d="m132.11,1.63l-2.54-.07s-.28.07-.68.09c1.57,0,3.29.06,3.23-.01Z"/>
        <path class="cls-1" d="m128.88,1.64c-.82,0-1.59,0-2.05.04.44,0,1.39-.01,2.05-.04Z"/>
        <polygon class="cls-1" points="123.01 1.37 123.76 1.42 125.56 1.44 123.01 1.37"/>
        <path class="cls-1" d="m159.46,1.69l2.78-.07c.28-.09-.47-.14-1.51-.11-.67.06-1.7.09-1.27.18Z"/>
        <path class="cls-1" d="m151.07,1c.75.05.8.11,1.22.19l.08-.31-1.31.12Z"/>
        <path class="cls-1" d="m159.17.93c.28-.09,4.03-.25.51-.23-.28.09-3.06.16-.51.23Z"/>
        <polygon class="cls-1" points="201.02 1.35 200.31 1.35 200.41 1.86 201.02 1.35"/>
        <path class="cls-1" d="m237.93.22c-3.3-.17-.79.3-3.77.11-.78.11,2.43.15,1.64.25,1.99-.1,3.04,0,2.13-.36Z"/>
        <path class="cls-1" d="m235.8.57c-.32.02-.66.04-1.02.07.58-.03.85-.05,1.02-.07Z"/>
        <polygon class="cls-1" points="20.29 5.53 22.23 4.92 20.94 5.22 20.29 5.53"/>
        <path class="cls-1" d="m23.89,3.93l.55.19,1.12-.6c-.45.13-1.31.39-1.67.41Z"/>
        <path class="cls-1" d="m241.19,54.2l.15-.1c-.34-.04-.84.01-1.85.11h1.7Z"/>
        <polygon class="cls-1" points="212.32 55 212.81 55 211.89 54.72 212.32 55"/>
        <path class="cls-1" d="m188.23,55.67c.98-.03,2.14-.05,3.13-.08-2.14.08-3.4-.28-3.13.08Z"/>
      </g>
    </g>
  </g>
</svg>