<svg width="24" height="25" viewBox="0 0 24 25" fill="none" xmlns="http://www.w3.org/2000/svg">
<path d="M20.19 23.3675H2.82C1.82 23.3675 1 22.6075 1 21.6675V11.0775C1 10.7475 1.14 10.4375 1.38 10.2075L10.58 1.3675C11.09 0.8775 11.92 0.8775 12.43 1.3675L21.64 10.1975C21.88 10.4275 22.02 10.7375 22.02 11.0575V21.6575C22.02 22.5975 21.2 23.3575 20.2 23.3575L20.19 23.3675Z" stroke="#704A38" stroke-width="2" stroke-miterlimit="10" stroke-linecap="round"/>
<path d="M12.65 12.0476H10.36C9.48739 12.0476 8.78 12.755 8.78 13.6276V15.8276C8.78 16.7002 9.48739 17.4076 10.36 17.4076H12.65C13.5226 17.4076 14.23 16.7002 14.23 15.8276V13.6276C14.23 12.755 13.5226 12.0476 12.65 12.0476Z" stroke="#704A38" stroke-width="2" stroke-miterlimit="10" stroke-linecap="round"/>
</svg>
